<svg height="496pt" viewBox="0 -48 496 496" width="496pt" xmlns="http://www.w3.org/2000/svg"><path d="m408 240c0-39.703125-32.296875-72-72-72s-72 32.296875-72 72 32.296875 72 72 72 72-32.296875 72-72zm-72 56c-30.871094 0-56-25.128906-56-56s25.128906-56 56-56 56 25.128906 56 56-25.128906 56-56 56zm0 0"/><path d="m489.769531 196.121094-2.296875-8.050782-7.9375 2.65625c-12 4.007813-24.03125-1.742187-29.152344-12.511718l-3.101562-6.535156-6.816406 2.441406c-8.855469 3.167968-18.457032 1.046875-25.039063-5.535156-2.488281-2.488282-4.335937-5.417969-5.503906-8.570313h22.078125c22.054688 0 40-17.945313 40-40v-80.015625c0-22.054688-17.945312-40-40-40h-352c-22.054688 0-40 17.945312-40 40v80c0 9.039062 3.128906 17.296875 8.207031 24h-8.207031c-22.054688 0-40 17.945312-40 40v80c0 22.054688 17.945312 40 40 40h149.449219c24.75 56.441406 81.078125 96 146.550781 96 88.222656 0 160-71.777344 160-160 0-14.609375-2.105469-29.375-6.230469-43.878906zm-33.769531-76.121094c0 13.230469-10.769531 24-24 24h-22.238281c.046875-.152344.078125-.3125.125-.472656l2.441406-6.816406-6.535156-3.101563c-8.511719-4.035156-13.792969-12.3125-13.792969-21.609375 0-3.816406.945312-7.519531 2.800781-11.046875l4.296875-8.128906-8.640625-3.136719c-5.945312-2.152344-11.976562-3.816406-18.03125-5.253906 2.222657-3.632813 3.574219-7.867188 3.574219-12.433594v-16c0-4.414062 3.585938-8 8-8s8 3.585938 8 8v16c0 13.230469 10.769531 24 24 24s24-10.769531 24-24v-16c0-4.414062 3.585938-8 8-8s8 3.585938 8 8zm-126.425781-39.671875c-5.949219.238281-11.804688.800781-17.574219 1.671875v-26c0-4.414062 3.585938-8 8-8s8 3.585938 8 8v16c0 2.9375.609375 5.71875 1.574219 8.328125zm-249.574219-64.328125h352c10.832031 0 19.894531 7.257812 22.871094 17.128906-2.191406-.664062-4.464844-1.128906-6.871094-1.128906-13.230469 0-24 10.769531-24 24v16c0 4.414062-3.585938 8-8 8s-8-3.585938-8-8v-16c0-13.230469-10.769531-24-24-24s-24 10.769531-24 24v16c0 4.414062-3.585938 8-8 8s-8-3.585938-8-8v-16c0-13.230469-10.769531-24-24-24s-24 10.769531-24 24v29.265625c-5.457031 1.40625-10.785156 3.085937-16 5.046875v-34.3125c0-13.230469-10.769531-24-24-24s-24 10.769531-24 24v32c0 4.414062-3.585938 8-8 8s-8-3.585938-8-8v-32c0-13.230469-10.769531-24-24-24s-24 10.769531-24 24v16c0 4.414062-3.585938 8-8 8s-8-3.585938-8-8v-16c0-13.230469-10.769531-24-24-24s-24 10.769531-24 24v48c0 4.414062-3.585938 8-8 8s-8-3.585938-8-8v-48c0-13.230469-10.769531-24-24-24-2.40625 0-4.679688.464844-6.871094 1.128906 2.976563-9.871094 12.039063-17.128906 22.871094-17.128906zm-40 144h112v-16h-72c-13.230469 0-24-10.769531-24-24v-64c0-4.414062 3.585938-8 8-8s8 3.585938 8 8v48c0 13.230469 10.769531 24 24 24s24-10.769531 24-24v-48c0-4.414062 3.585938-8 8-8s8 3.585938 8 8v16c0 13.230469 10.769531 24 24 24s24-10.769531 24-24v-16c0-4.414062 3.585938-8 8-8s8 3.585938 8 8v32c0 13.230469 10.769531 24 24 24s24-10.769531 24-24v-32c0-4.414062 3.585938-8 8-8s8 3.585938 8 8v40c0 .425781.089844.832031.113281 1.257812-22.023437 11.132813-41.074219 27.191407-55.808593 46.742188h-40.304688v16h29.648438c-12.664063 21.824219-20.257813 46.863281-21.320313 73.601562-.121094-.539062-.328125-1.035156-.328125-1.601562v-32c0-13.230469-10.769531-24-24-24s-24 10.769531-24 24v24c0 4.414062-3.585938 8-8 8s-8-3.585938-8-8v-24c0-13.230469-10.769531-24-24-24s-24 10.769531-24 24v48c0 4.414062-3.585938 8-8 8s-8-3.585938-8-8v-48c0-13.230469-10.769531-24-24-24-2.40625 0-4.679688.464844-6.871094 1.128906 2.976563-9.871094 12.039063-17.128906 22.871094-17.128906zm0 128c-13.230469 0-24-10.769531-24-24v-64c0-4.414062 3.585938-8 8-8s8 3.585938 8 8v48c0 13.230469 10.769531 24 24 24s24-10.769531 24-24v-48c0-4.414062 3.585938-8 8-8s8 3.585938 8 8v24c0 13.230469 10.769531 24 24 24s24-10.769531 24-24v-24c0-4.414062 3.585938-8 8-8s8 3.585938 8 8v32c0 10.6875 7.070312 19.664062 16.742188 22.761719 1.058593 11.460937 3.273437 22.597656 6.632812 33.238281zm296 96c-79.398438 0-144-64.601562-144-144s64.601562-144 144-144c13.863281 0 27.710938 2.070312 41.257812 6.167969-.832031 3.207031-1.257812 6.488281-1.257812 9.832031 0 13.046875 6.535156 25.265625 17.105469 32.679688-2.226563 12.710937 1.789062 25.976562 11.015625 35.199218 9.222656 9.226563 22.535156 13.199219 35.199218 11.015625 8.214844 11.714844 22.464844 18.5625 36.925782 16.859375 2.496094 10.734375 3.753906 21.542969 3.753906 32.246094 0 79.398438-64.601562 144-144 144zm0 0"/><path d="m426.339844 266.34375 24-24.003906 11.316406 11.3125-24.003906 24.003906zm0 0"/><path d="m274.339844 346.339844 24.003906-24 11.3125 11.3125-24.003906 24zm0 0"/><path d="m210.34375 226.339844 24-24 11.3125 11.3125-24 24.003906zm0 0"/><path d="m298.34375 125.660156 11.3125-11.3125 24 24-11.3125 11.3125zm0 0"/><path d="m218.339844 277.65625 11.316406-11.3125 24 24.003906-11.3125 11.3125zm0 0"/><path d="m378.339844 317.660156 11.3125-11.316406 24.003906 24.003906-11.316406 11.3125zm0 0"/><path d="m256 160h16v16h-16zm0 0"/><path d="m424 216h16v16h-16zm0 0"/><path d="m344 352h16v16h-16zm0 0"/></svg>