<svg height="480pt" viewBox="0 -40 480 480" width="480pt" xmlns="http://www.w3.org/2000/svg"><path d="m472 344.046875h-48v-208c0-4.417969-3.582031-8-8-8h-304c-30.910156.039063-55.960938 25.085937-56 56v160h-48c-4.417969 0-8 3.582031-8 8v16c0 4.417969 3.582031 8 8 8 8.835938 0 16 7.164063 16 16 0 4.417969 3.582031 8 8 8h416c4.417969 0 8-3.582031 8-8 0-8.835937 7.164062-16 16-16 4.417969 0 8-3.582031 8-8v-16c0-4.417969-3.582031-8-8-8zm-400-160c.027344-22.082031 17.917969-39.972656 40-40h296v32h-93.121094c-10.421875.011719-18.867187 8.457031-18.878906 18.878906-.023438 3.238281-1.152344 6.371094-3.199219 8.878907-1.871093 2.328124-4.574219 3.835937-7.535156 4.203124-3.402344.347657-6.792969-.753906-9.335937-3.035156-2.523438-2.277344-3.953126-5.527344-3.929688-8.925781v-1.121094c-.011719-10.421875-8.457031-18.867187-18.878906-18.878906h-37.121094c-13.253906 0-24 10.746094-24 24v50.878906c.175781 6.417969-4.386719 11.988281-10.710938 13.082031-3.402343.355469-6.796874-.746093-9.335937-3.035156-2.535156-2.273437-3.972656-5.523437-3.953125-8.925781v-52c0-13.253906-10.746094-24-24-24h-24c-8.835938 0-16 7.164063-16 16v152h-32zm322.960938 104.566406c-22.394532-9.289062-47.566407-9.289062-69.960938 0-9.117188 4.113281-19.050781 6.105469-29.046875 5.832031-9.988281.273438-19.910156-1.71875-29.015625-5.832031-11-4.839843-22.921875-7.21875-34.9375-6.96875-12.023438-.253906-23.960938 2.125-34.96875 6.96875-9.113281 4.113281-19.039062 6.105469-29.03125 5.832031-9.988281.273438-19.910156-1.71875-29.015625-5.832031-6.089844-2.625-12.457031-4.539062-18.984375-5.710937v-39.65625c4.457031 1.03125 8.816406 2.453125 13.023438 4.246094 6.125 2.625 12.535156 4.535156 19.097656 5.699218.253906 7.726563 3.714844 14.996094 9.546875 20.074219 5.835937 5.074219 13.515625 7.492187 21.203125 6.675781 14.527344-1.894531 25.328125-14.367187 25.128906-29.015625v-5.390625c7.679688-2.820312 15.824219-4.136718 24-3.890625 9.992188-.273437 19.921875 1.71875 29.03125 5.832031 10.980469 4.84375 22.890625 7.222657 34.890625 6.96875 12.050781.257813 24.011719-2.121093 35.046875-6.976562 18.585938-7.765625 39.507812-7.765625 58.09375 0 6.078125 2.605469 12.429688 4.507812 18.9375 5.679688v39.761718c-4.464844-1.050781-8.828125-2.488281-13.039062-4.296875zm13.039062 20.578125v34.855469h-288v-44.863281c4.457031 1.054687 8.8125 2.492187 13.023438 4.292968 11.011718 4.847657 22.949218 7.226563 34.976562 6.96875 12.023438.253907 23.960938-2.125 34.96875-6.96875 9.113281-4.109374 19.039062-6.105468 29.03125-5.832031 9.992188-.269531 19.914062 1.722657 29.023438 5.832031 11.003906 4.84375 22.933593 7.222657 34.953124 6.96875 12.027344.253907 23.96875-2.121093 34.984376-6.96875 18.582031-7.777343 39.507812-7.777343 58.085937 0 6.078125 2.621094 12.4375 4.539063 18.953125 5.714844zm-288-82.265625v-34.878906h24c4.417969 0 8 3.582031 8 8v36.800781c-4.457031-1.035156-8.816406-2.453125-13.023438-4.25-6.089843-2.605468-12.457031-4.507812-18.976562-5.671875zm275 5.679688c-22.398438-9.277344-47.5625-9.277344-69.960938 0-9.140624 4.121093-19.097656 6.117187-29.117187 5.839843-9.964844.273438-19.863281-1.71875-28.945313-5.824218-11.007812-4.851563-22.949218-7.234375-34.976562-6.976563-8.105469-.136719-16.191406.898438-24 3.074219v-28.671875c0-4.417969 3.582031-8 8-8h37.121094c1.585937.003906 2.875 1.289063 2.878906 2.878906v1.121094c-.007812 7.941406 3.359375 15.511719 9.257812 20.828125 5.898438 5.316406 13.78125 7.875 21.679688 7.042969 7.121094-.800781 13.648438-4.347657 18.191406-9.886719 4.410156-5.394531 6.835938-12.136719 6.871094-19.105469.003906-1.589843 1.292969-2.875 2.878906-2.878906h93.121094v44.800781c-4.449219-1.035156-8.796875-2.453125-13-4.242187zm69 128.457031c-11.257812 2.929688-20.050781 11.722656-22.984375 22.984375h-402.03125c-2.933594-11.261719-11.726563-20.054687-22.984375-22.984375v-1.015625h448zm0 0"/><path d="m296 84.046875c0-22.007813-20.703125-40.25-47.601562-43.449219 1.882812-19.414062 10.671874-25.078125 11.34375-25.480468 3.933593-2.019532 5.480468-6.84375 3.457031-10.773438-2.019531-3.933594-6.84375-5.480469-10.773438-3.457031-1.945312.976562-17.769531 9.832031-20.105469 39.625-27.25 2.957031-48.320312 21.328125-48.320312 43.535156 0 24.253906 25.128906 44 56 44s56-19.746094 56-44zm-56 28c-21.679688 0-40-12.800781-40-28s18.320312-28 40-28 40 12.800781 40 28-18.320312 28-40 28zm0 0"/></svg>